PathFileType	4	(X/Y/Z)	c:/Users/goper/Files/vsCode/490R/osim_files/C03/C03_Slow_01.trc
DataRate	CameraRate	NumFrames	NumMarkers	Units                	OrigDataRate	OrigDataStartFrame	OrigNumFrames
250.00	250.00	10	36	mm	250.0	1343	2684
                Frame#	Time	LPSIS			LASIS			LTH1			LTH2			LTH3			LTH4			LLFE			LMFE			LSH1			LSH2			LSH3			LSH4			LLMAL			LMMAL			LCAL			LMTP5			LTOE			LMTP1			RPSIS			RASIS			RTH1			RTH2			RTH3			RTH4			RLFE			RMFE			RSH1			RSH2			RSH3			RSH4			RLMAL			RMMAL			RCAL			RMTP1			RTOE			RMTP5		
		X1	Y1	Z1	X2	Y2	Z2	X3	Y3	Z3	X4	Y4	Z4	X5	Y5	Z5	X6	Y6	Z6	X7	Y7	Z7	X8	Y8	Z8	X9	Y9	Z9	X10	Y10	Z10	X11	Y11	Z11	X12	Y12	Z12	X13	Y13	Z13	X14	Y14	Z14	X15	Y15	Z15	X16	Y16	Z16	X17	Y17	Z17	X18	Y18	Z18	X19	Y19	Z19	X20	Y20	Z20	X21	Y21	Z21	X22	Y22	Z22	X23	Y23	Z23	X24	Y24	Z24	X25	Y25	Z25	X26	Y26	Z26	X27	Y27	Z27	X28	Y28	Z28	X29	Y29	Z29	X30	Y30	Z30	X31	Y31	Z31	X32	Y32	Z32	X33	Y33	Z33	X34	Y34	Z34	X35	Y35	Z35	X36	Y36	Z36

1343	5.36800	2089.77466	1047.35132	329.82037	0.00000	0.00000	0.00000	2015.62061	636.46918	401.50400	2010.54639	575.62793	392.55917	0.00000	0.00000	0.00000	0.00000	0.00000	0.00000	1989.05225	492.60913	379.87186	1994.00073	490.46625	265.34924	2045.46973	304.72382	377.37393	2037.43567	259.11160	370.84238	1985.46802	313.83267	384.20218	0.00000	0.00000	0.00000	1984.83545	104.09458	342.12375	0.00000	0.00000	0.00000	0.00000	0.00000	0.00000	1846.95325	56.55619	355.50845	0.00000	0.00000	0.00000	1889.95801	48.52089	260.86868	2090.81226	1034.83582	215.20323	1921.24988	993.31781	152.39417	0.00000	0.00000	0.00000	1785.72620	436.52567	122.38506	0.00000	0.00000	0.00000	0.00000	0.00000	0.00000	1820.29480	506.38971	136.10771	0.00000	0.00000	0.00000	0.00000	0.00000	0.00000	2034.20874	405.29382	116.87872	0.00000	0.00000	0.00000	0.00000	0.00000	0.00000	0.00000	0.00000	0.00000	0.00000	0.00000	0.00000	0.00000	0.00000	0.00000	2117.29907	107.37315	209.99799	2067.52710	108.86378	167.81017	2141.88281	124.59826	108.87505
1344	5.37200	2085.49341	1047.70142	329.82526	0.00000	0.00000	0.00000	2012.52979	636.84814	401.42114	2007.77942	576.00818	392.48764	0.00000	0.00000	0.00000	0.00000	0.00000	0.00000	1986.76880	492.89670	379.69016	1991.51038	490.66446	265.16449	2044.10437	305.33511	377.21576	2036.36963	259.70529	370.71255	1984.12390	314.15054	384.03967	0.00000	0.00000	0.00000	1984.60034	104.28993	341.97095	0.00000	0.00000	0.00000	0.00000	0.00000	0.00000	1846.86865	56.45333	355.45154	0.00000	0.00000	0.00000	1889.46375	48.50911	260.73773	2086.26587	1035.31396	215.20665	1916.63879	994.10083	152.81525	0.00000	0.00000	0.00000	1774.96423	436.74973	122.96481	0.00000	0.00000	0.00000	0.00000	0.00000	0.00000	1813.12744	508.02100	136.45567	1920.19324	550.34473	162.96864	0.00000	0.00000	0.00000	2024.68774	405.10510	117.68428	1975.11768	369.78549	124.93711	0.00000	0.00000	0.00000	0.00000	0.00000	0.00000	2138.17188	234.28780	220.49519	0.00000	0.00000	0.00000	2101.99683	106.03480	210.13287	2057.54297	106.78609	168.44879	2127.29370	122.72339	109.11159
1345	5.37600	2081.16943	1047.97131	329.85431	0.00000	0.00000	0.00000	2009.47595	637.20343	401.42258	2004.92883	576.33820	392.40250	0.00000	0.00000	0.00000	0.00000	0.00000	0.00000	1984.26428	493.10291	379.51639	1989.09143	490.92172	265.02643	2042.62268	305.86801	377.10071	2035.04492	260.08990	370.53378	1982.62939	314.32297	383.90924	0.00000	0.00000	0.00000	1984.19849	104.40974	341.83920	0.00000	0.00000	0.00000	0.00000	0.00000	0.00000	1846.74561	56.36559	355.44473	0.00000	0.00000	0.00000	1889.03882	48.50830	260.64105	2081.71436	1035.73315	215.18057	1911.79822	994.72980	153.46344	0.00000	0.00000	0.00000	1764.11328	436.78564	123.61264	0.00000	0.00000	0.00000	0.00000	0.00000	0.00000	1806.06555	509.58420	136.74425	0.00000	0.00000	0.00000	0.00000	0.00000	0.00000	2015.00134	404.70840	118.43055	1965.25574	368.69028	125.62125	0.00000	0.00000	0.00000	0.00000	0.00000	0.00000	2125.53027	231.96169	221.05725	0.00000	0.00000	0.00000	2086.67578	104.73836	210.28505	2047.66809	104.60911	169.09869	2112.93848	121.04534	109.32286
1346	5.38000	2076.89038	1048.25977	329.77649	0.00000	0.00000	0.00000	2006.39148	637.54596	401.38593	2002.13879	576.74054	392.33698	0.00000	0.00000	0.00000	0.00000	0.00000	0.00000	1981.90710	493.33835	379.30750	1986.85303	491.36633	264.89395	2041.16724	306.45154	376.94720	2033.86670	260.69272	370.42242	1981.20105	314.68817	383.74539	0.00000	0.00000	0.00000	1983.81970	104.57932	341.71008	0.00000	0.00000	0.00000	0.00000	0.00000	0.00000	1846.63342	56.29711	355.40564	0.00000	0.00000	0.00000	1888.62671	48.53505	260.56995	2077.15356	1036.13342	215.12569	1906.97607	995.37866	154.09624	0.00000	0.00000	0.00000	1753.30127	436.77985	124.13007	0.00000	0.00000	0.00000	0.00000	0.00000	0.00000	1798.95361	511.06451	136.94025	0.00000	0.00000	0.00000	0.00000	0.00000	0.00000	2005.52930	404.43106	119.22817	1955.91589	367.92526	126.30670	0.00000	0.00000	0.00000	0.00000	0.00000	0.00000	2112.97266	229.78195	221.74352	0.00000	0.00000	0.00000	2071.18140	103.49958	210.25766	2037.82104	102.44542	169.72717	2098.30933	119.20303	109.53815
1347	5.38400	2072.61670	1048.50879	329.71439	0.00000	0.00000	0.00000	2003.49988	638.06757	401.42331	1999.33630	577.07397	392.24323	0.00000	0.00000	0.00000	0.00000	0.00000	0.00000	1979.44006	493.55368	379.22592	1984.56421	491.76627	264.81073	2039.73657	307.01114	376.84851	2032.65930	261.17151	370.32205	1979.74524	314.98526	383.58307	0.00000	0.00000	0.00000	1983.34570	104.61140	341.53833	0.00000	0.00000	0.00000	0.00000	0.00000	0.00000	1846.55688	56.25364	355.45966	0.00000	0.00000	0.00000	1888.23169	48.58966	260.52890	2072.59009	1036.54065	215.03268	1902.26208	996.06879	154.63066	0.00000	0.00000	0.00000	1742.50037	436.73038	124.67375	0.00000	0.00000	0.00000	0.00000	0.00000	0.00000	1791.99109	512.64178	137.12296	0.00000	0.00000	0.00000	0.00000	0.00000	0.00000	1995.96558	403.93869	119.97941	1946.29871	366.78650	126.96999	0.00000	0.00000	0.00000	0.00000	0.00000	0.00000	2100.19580	227.25508	222.36781	0.00000	0.00000	0.00000	2055.51392	101.97929	210.37305	2026.66772	99.34802	170.95750	2083.60742	117.33291	109.73346
1348	5.38800	2068.37305	1048.73059	329.61087	0.00000	0.00000	0.00000	2000.40015	638.35120	401.37015	1996.58142	577.46643	392.22070	0.00000	0.00000	0.00000	0.00000	0.00000	0.00000	1977.11011	493.81122	379.09674	1982.25830	492.14014	264.70959	2038.29016	307.52802	376.76401	2031.50366	261.70288	370.24997	1978.23425	315.13245	383.47900	0.00000	0.00000	0.00000	1982.98279	104.73228	341.45886	0.00000	0.00000	0.00000	0.00000	0.00000	0.00000	1846.45557	56.19975	355.47708	0.00000	0.00000	0.00000	1887.83508	48.63158	260.45129	2067.97778	1036.87439	214.94521	1897.63281	996.75696	155.09554	0.00000	0.00000	0.00000	0.00000	0.00000	0.00000	0.00000	0.00000	0.00000	0.00000	0.00000	0.00000	1785.24243	514.23969	137.33430	1731.83228	436.71585	125.23946	0.00000	0.00000	0.00000	1986.39246	403.21552	120.75079	1936.99304	365.82300	127.69361	0.00000	0.00000	0.00000	0.00000	0.00000	0.00000	2087.36206	224.76494	222.98526	0.00000	0.00000	0.00000	0.00000	0.00000	0.00000	2013.55481	97.74127	171.53297	2068.93042	115.46872	109.85780
1349	5.39200	2064.33667	1049.45520	327.83203	0.00000	0.00000	0.00000	1997.53809	638.89722	401.41376	1993.88037	577.87646	392.19177	0.00000	0.00000	0.00000	0.00000	0.00000	0.00000	1974.72986	494.07956	378.96274	1979.96057	492.50519	264.64365	2036.94421	308.18619	376.69098	2030.36914	262.27609	370.14603	1976.89087	315.48868	383.39011	0.00000	0.00000	0.00000	1982.73633	104.97900	341.35602	0.00000	0.00000	0.00000	0.00000	0.00000	0.00000	1846.39844	56.18515	355.47574	0.00000	0.00000	0.00000	1887.43909	48.72938	260.42404	2063.42456	1037.27441	214.81473	0.00000	0.00000	0.00000	0.00000	0.00000	0.00000	0.00000	0.00000	0.00000	1852.01917	631.82294	114.90908	0.00000	0.00000	0.00000	1778.58667	515.77667	137.53844	1721.27698	436.68884	125.79997	0.00000	0.00000	0.00000	1976.96448	402.68024	121.54259	1927.34119	364.50031	128.45978	0.00000	0.00000	0.00000	0.00000	0.00000	0.00000	2074.32959	222.06424	223.46696	2167.19971	249.62939	189.25121	0.00000	0.00000	0.00000	1995.44910	98.54575	171.43594	2054.09351	113.55377	109.93008
1350	5.39600	2060.07031	1049.64905	327.71509	0.00000	0.00000	0.00000	1994.55859	639.21991	401.43021	1991.14832	578.22644	392.17169	0.00000	0.00000	0.00000	0.00000	0.00000	0.00000	1972.50293	494.40289	378.85815	1977.48169	492.72760	264.56567	2035.54260	308.70261	376.56802	2029.26941	262.78732	370.06073	1975.51416	315.78311	383.28729	0.00000	0.00000	0.00000	1982.52063	105.25546	341.30493	0.00000	0.00000	0.00000	0.00000	0.00000	0.00000	1846.38318	56.17436	355.52084	0.00000	0.00000	0.00000	1886.98242	48.80699	260.36136	2058.88086	1037.61584	214.64748	1888.28894	998.04279	155.99730	0.00000	0.00000	0.00000	0.00000	0.00000	0.00000	1845.27661	633.26733	115.06562	0.00000	0.00000	0.00000	1771.91199	517.27606	137.69206	1710.66248	436.51859	126.36729	0.00000	0.00000	0.00000	0.00000	0.00000	0.00000	0.00000	0.00000	0.00000	2158.81274	319.91183	230.81787	0.00000	0.00000	0.00000	2061.39819	219.39514	224.14473	2154.89673	244.61714	190.17970	0.00000	0.00000	0.00000	1979.78784	97.87083	171.32005	2039.09277	111.49569	110.05589
1351	5.40000	2055.79199	1049.85034	327.58804	0.00000	0.00000	0.00000	1991.53540	639.50702	401.46127	1988.39233	578.59021	392.15009	0.00000	0.00000	0.00000	0.00000	0.00000	0.00000	1970.26538	494.75427	378.80862	1974.90588	492.93732	264.48178	2034.16345	309.22519	376.48090	2028.10046	263.27969	370.01083	1974.00769	315.85825	383.18637	0.00000	0.00000	0.00000	1982.12280	105.35502	341.21164	0.00000	0.00000	0.00000	0.00000	0.00000	0.00000	1846.27527	56.11663	355.55438	0.00000	0.00000	0.00000	1886.46594	48.84988	260.34131	2054.28638	1037.89062	214.50937	1883.62817	998.64130	156.45369	0.00000	0.00000	0.00000	0.00000	0.00000	0.00000	1838.56506	635.68579	115.28938	0.00000	0.00000	0.00000	1765.27246	518.72498	137.70807	0.00000	0.00000	0.00000	0.00000	0.00000	0.00000	1957.78857	400.72290	122.99857	1908.74304	361.89215	129.88251	0.00000	0.00000	0.00000	0.00000	0.00000	0.00000	2048.11963	216.41245	224.67238	2142.41895	239.47606	191.14825	0.00000	0.00000	0.00000	1964.02209	97.22355	171.11584	2024.26624	109.66073	110.14764
1352	5.40400	2051.55127	1050.08337	327.35965	0.00000	0.00000	0.00000	1988.69714	639.99567	401.42801	1985.79382	579.02075	392.12695	0.00000	0.00000	0.00000	0.00000	0.00000	0.00000	1968.00159	495.03638	378.70294	1972.38220	493.13354	264.42352	2032.89221	309.87405	376.37967	2027.17236	263.96194	369.93695	1972.80859	316.30521	383.14093	0.00000	0.00000	0.00000	1981.81396	105.60461	341.13269	0.00000	0.00000	0.00000	0.00000	0.00000	0.00000	1846.20471	56.10148	355.55893	0.00000	0.00000	0.00000	1885.96582	48.88657	260.26126	2049.71753	1038.27698	214.32057	1878.87903	999.14148	157.03699	0.00000	0.00000	0.00000	0.00000	0.00000	0.00000	1832.39062	637.73071	115.48159	0.00000	0.00000	0.00000	1758.81653	520.10529	137.74324	0.00000	0.00000	0.00000	1948.31824	399.73712	123.72993	0.00000	0.00000	0.00000	1899.50537	360.44495	130.55150	0.00000	0.00000	0.00000	0.00000	0.00000	0.00000	2034.82190	213.51164	225.18558	2129.86133	234.33542	192.12497	0.00000	0.00000	0.00000	1948.26086	96.54536	170.73596	2008.92542	107.36513	110.20537
